PathFileType	4	(X/Y/Z)	OpenSim_Sub10_EMGStiffKnee_Gyro.trc
DataRate	CameraRate	NumFrames	NumMarkers	Units	OrigDataRate	OrigDataStartFrame	OrigNumFrames
100	100	13	8	m	100	3140	8371
Frame#	Time	torso_imu_offset_imu	pelvis_imu_offset_imu	tibia_r_imu_offset_imu	femur_r_imu_offset_imu	tibia_l_imu_offset_imu	femur_l_imu_offset_imu	toes_r_imu_offset_imu	toes_l_imu_offset_imu
				X1	Y1	Z1	X2	Y2	Z2	X3	Y3	Z3	X4	Y4	Z4	X5	Y5	Z5	X6	Y6	Z6	X7	Y7	Z7	X8		Y8	Z8	

3140	31.39000000	-0.27890500	0.08168500	0.11826800	-0.70836800	-0.01386200	0.21804700	0.48312100	-0.37793700	-3.02311500	0.63787500	0.34162100	2.23041800	-0.43384300	-0.69598000	0.63675500	0.70481300	-0.21884600	0.72022200	0.15310400	-6.12511000	-0.91830300	-0.74378700	0.07599300	0.38206700
3141	31.40000000	-0.43453700	0.05888800	0.04267500	-0.85018600	0.11707000	0.20500400	0.07161600	-0.62062200	-2.92555900	0.59775900	0.16603800	2.29109400	0.21221400	-0.80061400	0.40298400	1.30607800	-0.52795600	1.20592400	0.02324100	-6.09375800	-0.90030000	-0.57769800	0.08910700	0.39009100
3142	31.41000000	-0.70092200	0.10246100	-0.00106900	-0.85832300	0.22102600	0.17481800	-0.43060800	-0.77967000	-2.57551600	0.47124200	-0.04305400	2.36369600	0.80986400	-0.78155500	0.35276800	1.78017400	-0.72814700	1.56060400	-0.88236400	-5.12931700	-0.72922100	-0.54604700	0.07005000	0.32898900
3143	31.42000000	-0.87873100	0.15321200	-0.04671500	-0.79720800	0.25603200	0.14336900	-0.93259100	-0.80102000	-2.10038300	0.32064500	-0.23394400	2.41908700	0.86033600	-0.50707100	0.34370100	1.94330800	-0.63548900	1.81519600	-1.00039800	-4.29671000	-0.88904100	-0.43971700	0.05334100	0.24374800
3144	31.43000000	-0.94619500	0.16231500	-0.09354800	-0.71341000	0.24673300	0.10694200	-1.15312300	-0.60624200	-1.64536000	0.12897100	-0.37150700	2.47405000	0.31075600	-0.48505800	0.59688600	1.73045300	-0.28533700	1.96820000	-0.12054000	-3.20917700	-1.09087700	-0.30787900	0.03689400	0.12515800
3145	31.44000000	-0.94432200	0.11726300	-0.15355100	-0.64815100	0.22686300	0.07381700	-1.04279000	-0.05766800	-1.25402500	-0.08784700	-0.43152000	2.52631800	-0.13576100	-0.50633000	0.86557700	1.27961500	0.17758800	1.89959100	-0.37774200	-1.06403900	-1.17397500	-0.17164400	-0.02473400	0.03683200
3146	31.45000000	-0.88604200	0.04313800	-0.24331200	-0.58800100	0.23021100	0.04687700	-0.58298000	0.54625100	-0.86432200	-0.26834100	-0.38881400	2.50983300	-0.44096200	-0.48124800	0.76778900	0.80226800	0.49405300	1.60790700	-1.62068200	1.34985700	-1.03534700	-0.10638100	-0.06704700	-0.02237700
3147	31.46000000	-0.77654000	-0.04046700	-0.33821500	-0.48950700	0.21701300	0.03284100	-0.09819300	0.68605000	-0.53962200	-0.31632800	-0.29284800	2.43049000	-0.70649700	-0.44702100	0.47085200	0.43386600	0.49596200	1.16328400	-0.38999600	1.95715100	-1.13318800	-0.04429000	-0.09103800	-0.04588300
3148	31.47000000	-0.65948800	-0.11177500	-0.39023100	-0.39342100	0.16436900	0.05388500	-0.23942300	0.19972900	-0.37993300	-0.24300700	-0.16983300	2.31874500	-0.70760100	-0.49035500	0.30335400	0.16538000	0.19288200	0.80348900	-0.47319900	1.93124500	-1.25420800	-0.06256600	-0.10135900	-0.04106000
3149	31.48000000	-0.52876600	-0.21756400	-0.42251900	-0.34044700	0.09887300	0.08564100	-1.17578300	-0.51711900	-0.26937100	-0.19512200	-0.06923600	2.26534400	-0.48338800	-0.47094500	0.33686800	-0.17454900	-0.21538400	0.58292900	-0.44744100	2.06697700	-1.10843400	-0.05951400	-0.09590700	-0.03235200
3150	31.49000000	-0.51655500	-0.24945100	-0.42702800	-0.33563100	0.04080300	0.12867500	-2.43831900	-0.96900300	-0.05303600	-0.25471800	-0.02233800	2.26092500	-0.21950300	-0.42275200	0.45582400	-0.58509700	-0.50220100	0.51788500	-0.78879400	2.44802300	-0.81766700	-0.05958400	-0.09274700	-0.00485400
3151	31.50000000	-0.57230500	-0.26309200	-0.40234700	-0.38278500	0.01373100	0.17672100	-3.22688100	-0.95940600	0.36154300	-0.39442800	-0.04074500	2.25478900	0.06058000	-0.36700400	0.49103400	-1.08486100	-0.54868100	0.47454200	-1.04057300	2.92825100	-0.50473300	-0.08214500	-0.07202300	0.02347800
3152	31.51000000	-0.54037700	-0.26156300	-0.36607300	-0.46512900	0.03797500	0.22816400	-3.22494000	-0.64464700	0.97671700	-0.52256200	-0.09580500	2.16198400	0.19644500	-0.34974200	0.47444900	-1.47505100	-0.41894400	0.40727400	-0.75729000	3.50138600	-0.26704200	-0.08477100	-0.07031900	0.03951600
